<svg width="1751" height="549" viewBox="0 0 1751 549" fill="none" xmlns="http://www.w3.org/2000/svg">
<path d="M17.6025 324.316C32.6416 263.818 43.75 190.845 50.9277 105.396C50.9277 104.028 52.7507 101.921 56.3965 99.0723C60.0423 96.11 63.1755 94.5719 65.7959 94.458C99.9756 91.6097 126.009 90.1855 143.896 90.1855C127.604 160.368 116.382 235.278 110.229 314.917C110.229 316.512 108.407 318.848 104.761 321.924C101.115 324.886 97.9248 326.367 95.1904 326.367C75.3662 326.367 49.5036 325.684 17.6025 324.316ZM119.8 325.342C132.332 320.898 143.327 311.556 152.783 297.314C162.24 282.959 166.968 268.547 166.968 254.077C166.968 234.481 157.967 220.98 139.966 213.574C138.143 212.435 137.231 210.555 137.231 207.935C137.231 201.782 139.054 198.193 142.7 197.168C150.789 195.003 157.682 187.826 163.379 175.635C169.076 163.33 171.924 149.715 171.924 134.79C171.924 119.751 167.139 108.7 157.568 101.636C157.568 99.9268 159.505 97.5342 163.379 94.458C167.253 91.3818 170.557 89.8438 173.291 89.8438C209.521 92.2363 232.878 103.63 243.359 124.023C246.549 130.176 248.145 137.183 248.145 145.044C248.145 152.905 246.151 160.197 242.163 166.919C238.289 173.641 233.276 179.281 227.124 183.838C221.086 188.281 213.965 192.212 205.762 195.63C190.951 201.782 175.228 205.713 158.594 207.422C165.43 206.966 171.012 206.738 175.342 206.738C196.989 206.738 213.965 211.296 226.27 220.41C238.574 229.411 244.727 242.285 244.727 259.033C244.727 268.717 242.619 277.547 238.403 285.522C234.302 293.498 228.89 300.106 222.168 305.347C215.56 310.474 207.812 314.86 198.926 318.506C182.633 325.114 164.575 328.418 144.751 328.418C136.092 328.418 127.775 327.393 119.8 325.342ZM461.255 325H381.787C372.9 254.134 361.678 192.611 348.12 140.43C354.728 126.986 360.368 114.681 365.039 103.516C365.837 101.807 367.887 99.528 371.191 96.6797C374.609 93.8314 377.515 92.4072 379.907 92.4072H434.253C438.924 126.815 445.19 165.153 453.052 207.422C461.027 249.577 468.774 285.01 476.294 313.721C476.294 315.202 474.471 317.48 470.825 320.557C467.179 323.519 463.989 325 461.255 325ZM324.707 294.751L325.22 313.721C325.22 315.202 323.34 317.48 319.58 320.557C315.934 323.519 312.801 325 310.181 325H255.664C273.665 294.466 301.579 238.525 339.404 157.178C340.43 160.14 340.942 164.299 340.942 169.653C340.942 174.894 340.145 182.528 338.55 192.554C337.069 202.58 335.132 214.429 332.739 228.101C330.347 241.659 328.581 252.653 327.441 261.084C343.848 263.59 355.754 266.382 363.159 269.458C363.159 276.294 362.02 281.364 359.741 284.668C347.892 285.693 336.214 287.231 324.707 289.282V294.751ZM629.248 85.9131C620.247 93.5465 615.747 102.832 615.747 113.77C615.747 124.593 618.709 135.474 624.634 146.411C630.672 157.235 637.679 166.463 645.654 174.097C653.63 181.73 659.782 187.826 664.111 192.383C668.555 196.826 673.511 202.238 678.979 208.618C684.562 214.884 688.949 220.524 692.139 225.537C700 237.728 703.931 248.438 703.931 257.666C703.931 266.781 701.994 275.269 698.12 283.13C694.36 290.991 688.949 298.169 681.885 304.663C674.935 311.043 665.991 316.341 655.054 320.557C644.23 324.772 632.267 327.165 619.165 327.734C622.811 322.493 624.634 317.025 624.634 311.328C624.634 305.518 623.438 299.65 621.045 293.726C618.652 287.687 615.007 281.25 610.107 274.414C602.246 263.363 593.416 252.539 583.618 241.943C573.934 231.348 567.155 223.771 563.281 219.214C559.521 214.657 555.249 208.903 550.464 201.953C541.121 188.509 536.45 175.008 536.45 161.45C536.45 147.892 540.609 135.303 548.926 123.682C557.243 112.061 568.465 102.889 582.593 96.167C596.834 89.445 612.386 86.027 629.248 85.9131ZM686.157 189.136C686.157 178.084 684.163 166.691 680.176 154.956C672.314 132.056 659.212 113.599 640.869 99.585C641.097 97.5342 643.034 95.0846 646.68 92.2363C650.326 89.388 653.345 87.9639 655.737 87.9639C664.054 87.9639 673.739 89.6159 684.79 92.9199C695.955 96.224 704.785 99.4141 711.279 102.49C711.849 105.908 712.134 111.89 712.134 120.435C712.134 128.866 711.336 139.461 709.741 152.222C708.146 164.868 706.209 174.894 703.931 182.3C703.247 184.009 700.798 185.604 696.582 187.085C692.48 188.452 689.006 189.136 686.157 189.136ZM604.297 312.866C602.93 320.614 600.822 325.798 597.974 328.418C586.011 328.418 571.883 326.88 555.591 323.804C539.299 320.728 527.45 316.797 520.044 312.012C519.93 309.505 519.873 305.916 519.873 301.245C519.873 279.028 522.493 257.951 527.734 238.013C528.19 236.19 530.127 233.911 533.545 231.177C536.963 228.328 540.039 226.904 542.773 226.904C545.394 239.437 550.065 252.026 556.787 264.673C563.623 277.319 571.313 288.029 579.858 296.802C588.517 305.461 596.663 310.815 604.297 312.866ZM829.883 325H752.124C768.188 255.957 779.354 182.129 785.62 103.516C785.62 102.035 787.443 99.8128 791.089 96.8506C794.849 93.8883 798.039 92.4072 800.659 92.4072H878.247C869.93 127.498 862.866 165.096 857.056 205.2C872.778 208.276 882.861 210.669 887.305 212.378C887.305 219.442 885.994 224.626 883.374 227.93C871.639 228.841 861.613 230.151 853.296 231.86C849.764 259.66 846.916 286.947 844.751 313.721C844.751 315.202 842.928 317.48 839.282 320.557C835.636 323.519 832.503 325 829.883 325ZM956.86 325H879.272C895.109 257.21 906.274 183.382 912.769 103.516C912.769 102.035 914.591 99.8128 918.237 96.8506C921.883 93.8883 925.016 92.4072 927.637 92.4072H1005.22C989.388 159.855 978.223 233.626 971.729 313.721C971.729 315.202 969.849 317.48 966.089 320.557C962.443 323.519 959.367 325 956.86 325ZM1143.99 206.738C1171.11 209.701 1190.93 213.062 1203.47 216.821C1203.47 223.088 1202.16 227.702 1199.54 230.664C1180.85 231.803 1160.8 234.766 1139.38 239.551C1136.3 263.477 1133.74 288.2 1131.69 313.721C1131.69 315.202 1129.87 317.48 1126.22 320.557C1122.57 323.519 1119.44 325 1116.82 325H1037.18C1052.45 269.743 1063.73 195.915 1071.02 103.516C1071.02 102.035 1072.9 99.8128 1076.66 96.8506C1080.42 93.8883 1083.61 92.4072 1086.23 92.4072H1165.53C1156.87 130.005 1149.69 168.115 1143.99 206.738ZM1217.48 195.972C1214.75 178.768 1209.56 161.621 1201.93 144.531C1194.3 127.441 1186.6 114.624 1178.86 106.079C1179.43 100.61 1181.08 96.0531 1183.81 92.4072H1245.85C1245.05 103.459 1243.34 118.327 1240.72 137.012C1238.1 155.583 1235.31 171.419 1232.35 184.521C1231.89 186.458 1229.96 188.851 1226.54 191.699C1223.12 194.548 1220.1 195.972 1217.48 195.972ZM1209.62 254.761C1210.87 253.166 1213.72 250.887 1218.16 247.925C1222.61 244.963 1226.08 243.481 1228.59 243.481C1224.72 277.319 1221.07 300.391 1217.65 312.695C1216.63 314.974 1214.58 317.594 1211.5 320.557C1208.42 323.519 1205.92 325 1203.98 325H1141.26C1169.29 306.201 1192.07 282.788 1209.62 254.761ZM1364.62 313.721C1364.62 315.202 1362.8 317.48 1359.16 320.557C1355.51 323.519 1352.32 325 1349.58 325H1272C1287.61 262.109 1298.71 188.908 1305.32 105.396C1305.32 104.028 1307.15 101.921 1310.79 99.0723C1314.44 96.11 1317.57 94.5719 1320.19 94.458C1354.37 91.6097 1380.46 90.1855 1398.46 90.1855C1382.06 161.051 1370.78 235.563 1364.62 313.721ZM1488.7 248.096L1486.3 282.446C1486.3 288.713 1487.44 293.726 1489.72 297.485C1492 301.245 1496.22 303.581 1502.37 304.492C1501.23 311.67 1499.35 317.537 1496.73 322.095C1476.33 326.88 1458.96 329.272 1444.6 329.272C1430.36 329.272 1419.31 327.336 1411.45 323.462C1403.7 319.474 1399.83 313.322 1399.83 305.005C1399.83 296.688 1401.08 285.352 1403.59 270.996C1406.21 256.527 1407.52 246.273 1407.52 240.234C1407.52 234.082 1406.15 228.955 1403.42 224.854C1400.68 220.752 1396.98 218.473 1392.31 218.018C1392.88 212.891 1394.82 208.333 1398.12 204.346C1407.69 199.333 1415.15 191.528 1420.51 180.933C1425.86 170.337 1428.54 158.887 1428.54 146.582C1428.54 128.125 1423.01 113.143 1411.96 101.636C1411.96 99.9268 1413.79 97.5342 1417.43 94.458C1421.08 91.3818 1424.21 89.8438 1426.83 89.8438C1447.22 89.8438 1464.88 94.0592 1479.81 102.49C1487.33 106.82 1493.31 112.744 1497.75 120.264C1502.2 127.783 1504.42 136.442 1504.42 146.24C1504.42 162.305 1497.07 175.977 1482.37 187.256C1467.68 198.535 1448.02 205.029 1423.41 206.738L1438.79 208.105C1453.83 209.587 1465.91 213.574 1475.02 220.068C1484.14 226.449 1488.7 235.791 1488.7 248.096ZM1715.65 325H1636.18C1627.29 254.134 1616.07 192.611 1602.51 140.43C1609.12 126.986 1614.76 114.681 1619.43 103.516C1620.23 101.807 1622.28 99.528 1625.59 96.6797C1629 93.8314 1631.91 92.4072 1634.3 92.4072H1688.65C1693.32 126.815 1699.58 165.153 1707.45 207.422C1715.42 249.577 1723.17 285.01 1730.69 313.721C1730.69 315.202 1728.87 317.48 1725.22 320.557C1721.57 323.519 1718.38 325 1715.65 325ZM1579.1 294.751L1579.61 313.721C1579.61 315.202 1577.73 317.48 1573.97 320.557C1570.33 323.519 1567.2 325 1564.58 325H1510.06C1528.06 294.466 1555.97 238.525 1593.8 157.178C1594.82 160.14 1595.34 164.299 1595.34 169.653C1595.34 174.894 1594.54 182.528 1592.94 192.554C1591.46 202.58 1589.53 214.429 1587.13 228.101C1584.74 241.659 1582.98 252.653 1581.84 261.084C1598.24 263.59 1610.15 266.382 1617.55 269.458C1617.55 276.294 1616.41 281.364 1614.14 284.668C1602.29 285.693 1590.61 287.231 1579.1 289.282V294.751Z" fill="#1A1A1A"/>
<path d="M556 494H530.5L478.5 441.5H533.5V389H468.5V494H448.5V406.25L466 389H448.5V371.5H536C540.667 371.5 544.75 373.25 548.25 376.75C551.75 380.25 553.5 384.333 553.5 389V436.5C553.5 449.833 547.667 456.5 536 456.5H521V459.25L556 494ZM679.799 494H592.299V406.5L609.799 389H592.299V371.5H679.799V389H612.299V439L627.299 424H679.799V441.5H612.299V476.5H679.799V494ZM822.299 493.75H787.299L739.799 390H729.799L737.299 402.5V493.75H717.299V371.25H752.549L799.799 475H809.799L802.299 462.5V371.25H822.299V493.75ZM938.451 389H902.201V494H882.201V389H845.951V371.5H938.451V389ZM1067.17 494H1047.17V459H982.172V494H962.172V389C962.172 384.167 963.839 380.083 967.172 376.75C970.672 373.25 974.839 371.5 979.672 371.5H1067.17V494ZM1047.17 441.5V389H982.172V456.5L997.172 441.5H1047.17ZM1199.57 494H1112.07V371.5H1132.07V476.5H1179.57V459H1199.57V494ZM1307.12 476.5C1307.12 481.333 1305.37 485.5 1301.87 489C1298.54 492.333 1294.46 494 1289.62 494H1219.62V476.5H1287.12V441.5H1237.12C1232.29 441.5 1228.12 439.833 1224.62 436.5C1221.29 433 1219.62 428.833 1219.62 424V389C1219.62 384.167 1221.29 380.083 1224.62 376.75C1228.12 373.25 1232.29 371.5 1237.12 371.5H1307.12V389H1239.62V424H1289.62C1294.46 424 1298.54 425.75 1301.87 429.25C1305.37 432.583 1307.12 436.667 1307.12 441.5V476.5Z" fill="#1A1A1A"/>
</svg>
